<?xml version="1.0" encoding="UTF-8" standalone="no"?>
<!DOCTYPE svg PUBLIC "-//W3C//DTD SVG 1.1//EN"
 "http://www.w3.org/Graphics/SVG/1.1/DTD/svg11.dtd">
<!-- Generated by graphviz version 2.43.0 (0)
 -->
<!-- Title: %3 Pages: 1 -->
<svg width="1343pt" height="620pt"
 viewBox="0.00 0.00 1343.00 620.00" xmlns="http://www.w3.org/2000/svg" xmlns:xlink="http://www.w3.org/1999/xlink">
<g id="graph0" class="graph" transform="scale(1 1) rotate(0) translate(4 616)">
<title>%3</title>
<polygon fill="white" stroke="transparent" points="-4,4 -4,-616 1339,-616 1339,4 -4,4"/>
<!-- [root] azurerm_network_interface.vm_nic (expand) -->
<g id="node1" class="node">
<title>[root] azurerm_network_interface.vm_nic (expand)</title>
<polygon fill="none" stroke="black" points="845,-324 579,-324 579,-288 845,-288 845,-324"/>
<text text-anchor="middle" x="712" y="-302.3" font-family="Times,serif" font-size="14.00">azurerm_network_interface.vm_nic</text>
</g>
<!-- [root] azurerm_public_ip.pip_vm (expand) -->
<g id="node4" class="node">
<title>[root] azurerm_public_ip.pip_vm (expand)</title>
<polygon fill="none" stroke="black" points="1100.5,-252 897.5,-252 897.5,-216 1100.5,-216 1100.5,-252"/>
<text text-anchor="middle" x="999" y="-230.3" font-family="Times,serif" font-size="14.00">azurerm_public_ip.pip_vm</text>
</g>
<!-- [root] azurerm_network_interface.vm_nic (expand)&#45;&gt;[root] azurerm_public_ip.pip_vm (expand) -->
<g id="edge1" class="edge">
<title>[root] azurerm_network_interface.vm_nic (expand)&#45;&gt;[root] azurerm_public_ip.pip_vm (expand)</title>
<path fill="none" stroke="black" d="M781.84,-287.97C823.25,-277.87 875.88,-265.03 918.96,-254.52"/>
<polygon fill="black" stroke="black" points="919.96,-257.88 928.85,-252.11 918.3,-251.08 919.96,-257.88"/>
</g>
<!-- [root] azurerm_subnet.public_subnet (expand) -->
<g id="node6" class="node">
<title>[root] azurerm_subnet.public_subnet (expand)</title>
<polygon fill="none" stroke="black" points="830,-252 594,-252 594,-216 830,-216 830,-252"/>
<text text-anchor="middle" x="712" y="-230.3" font-family="Times,serif" font-size="14.00">azurerm_subnet.public_subnet</text>
</g>
<!-- [root] azurerm_network_interface.vm_nic (expand)&#45;&gt;[root] azurerm_subnet.public_subnet (expand) -->
<g id="edge2" class="edge">
<title>[root] azurerm_network_interface.vm_nic (expand)&#45;&gt;[root] azurerm_subnet.public_subnet (expand)</title>
<path fill="none" stroke="black" d="M712,-287.7C712,-279.98 712,-270.71 712,-262.11"/>
<polygon fill="black" stroke="black" points="715.5,-262.1 712,-252.1 708.5,-262.1 715.5,-262.1"/>
</g>
<!-- [root] var.vm_nic -->
<g id="node23" class="node">
<title>[root] var.vm_nic</title>
<polygon fill="none" stroke="black" points="570,-252 484,-252 484,-216 576,-216 576,-246 570,-252"/>
<polyline fill="none" stroke="black" points="570,-252 570,-246 "/>
<polyline fill="none" stroke="black" points="576,-246 570,-246 "/>
<text text-anchor="middle" x="530" y="-230.3" font-family="Times,serif" font-size="14.00">var.vm_nic</text>
</g>
<!-- [root] azurerm_network_interface.vm_nic (expand)&#45;&gt;[root] var.vm_nic -->
<g id="edge3" class="edge">
<title>[root] azurerm_network_interface.vm_nic (expand)&#45;&gt;[root] var.vm_nic</title>
<path fill="none" stroke="black" d="M667.48,-287.88C642.27,-278.18 610.55,-265.98 583.93,-255.74"/>
<polygon fill="black" stroke="black" points="584.97,-252.39 574.38,-252.07 582.45,-258.92 584.97,-252.39"/>
</g>
<!-- [root] azurerm_network_interface_security_group_association.nic_sg (expand) -->
<g id="node2" class="node">
<title>[root] azurerm_network_interface_security_group_association.nic_sg (expand)</title>
<polygon fill="none" stroke="black" points="970.5,-396 509.5,-396 509.5,-360 970.5,-360 970.5,-396"/>
<text text-anchor="middle" x="740" y="-374.3" font-family="Times,serif" font-size="14.00">azurerm_network_interface_security_group_association.nic_sg</text>
</g>
<!-- [root] azurerm_network_interface_security_group_association.nic_sg (expand)&#45;&gt;[root] azurerm_network_interface.vm_nic (expand) -->
<g id="edge4" class="edge">
<title>[root] azurerm_network_interface_security_group_association.nic_sg (expand)&#45;&gt;[root] azurerm_network_interface.vm_nic (expand)</title>
<path fill="none" stroke="black" d="M733.08,-359.7C729.93,-351.81 726.12,-342.3 722.62,-333.55"/>
<polygon fill="black" stroke="black" points="725.81,-332.09 718.84,-324.1 719.31,-334.69 725.81,-332.09"/>
</g>
<!-- [root] azurerm_network_security_group.sg_rdp (expand) -->
<g id="node3" class="node">
<title>[root] azurerm_network_security_group.sg_rdp (expand)</title>
<polygon fill="none" stroke="black" points="1335,-324 1027,-324 1027,-288 1335,-288 1335,-324"/>
<text text-anchor="middle" x="1181" y="-302.3" font-family="Times,serif" font-size="14.00">azurerm_network_security_group.sg_rdp</text>
</g>
<!-- [root] azurerm_network_interface_security_group_association.nic_sg (expand)&#45;&gt;[root] azurerm_network_security_group.sg_rdp (expand) -->
<g id="edge5" class="edge">
<title>[root] azurerm_network_interface_security_group_association.nic_sg (expand)&#45;&gt;[root] azurerm_network_security_group.sg_rdp (expand)</title>
<path fill="none" stroke="black" d="M847.32,-359.97C912.67,-349.59 996.23,-336.33 1063.38,-325.67"/>
<polygon fill="black" stroke="black" points="1064.26,-329.07 1073.58,-324.05 1063.16,-322.16 1064.26,-329.07"/>
</g>
<!-- [root] azurerm_resource_group.rg_terraform (expand) -->
<g id="node5" class="node">
<title>[root] azurerm_resource_group.rg_terraform (expand)</title>
<polygon fill="none" stroke="black" points="1106.5,-108 815.5,-108 815.5,-72 1106.5,-72 1106.5,-108"/>
<text text-anchor="middle" x="961" y="-86.3" font-family="Times,serif" font-size="14.00">azurerm_resource_group.rg_terraform</text>
</g>
<!-- [root] azurerm_network_security_group.sg_rdp (expand)&#45;&gt;[root] azurerm_resource_group.rg_terraform (expand) -->
<g id="edge6" class="edge">
<title>[root] azurerm_network_security_group.sg_rdp (expand)&#45;&gt;[root] azurerm_resource_group.rg_terraform (expand)</title>
<path fill="none" stroke="black" d="M1207.58,-287.91C1219.24,-278.81 1231.69,-266.49 1238,-252 1257.17,-207.99 1268.59,-180.99 1238,-144 1221.37,-123.88 1170.55,-111.33 1116.9,-103.53"/>
<polygon fill="black" stroke="black" points="1117.24,-100.04 1106.85,-102.13 1116.27,-106.98 1117.24,-100.04"/>
</g>
<!-- [root] var.sg_name -->
<g id="node19" class="node">
<title>[root] var.sg_name</title>
<polygon fill="none" stroke="black" points="1222.5,-252 1123.5,-252 1123.5,-216 1228.5,-216 1228.5,-246 1222.5,-252"/>
<polyline fill="none" stroke="black" points="1222.5,-252 1222.5,-246 "/>
<polyline fill="none" stroke="black" points="1228.5,-246 1222.5,-246 "/>
<text text-anchor="middle" x="1176" y="-230.3" font-family="Times,serif" font-size="14.00">var.sg_name</text>
</g>
<!-- [root] azurerm_network_security_group.sg_rdp (expand)&#45;&gt;[root] var.sg_name -->
<g id="edge7" class="edge">
<title>[root] azurerm_network_security_group.sg_rdp (expand)&#45;&gt;[root] var.sg_name</title>
<path fill="none" stroke="black" d="M1179.76,-287.7C1179.21,-279.98 1178.55,-270.71 1177.94,-262.11"/>
<polygon fill="black" stroke="black" points="1181.43,-261.83 1177.22,-252.1 1174.44,-262.33 1181.43,-261.83"/>
</g>
<!-- [root] azurerm_public_ip.pip_vm (expand)&#45;&gt;[root] azurerm_resource_group.rg_terraform (expand) -->
<g id="edge8" class="edge">
<title>[root] azurerm_public_ip.pip_vm (expand)&#45;&gt;[root] azurerm_resource_group.rg_terraform (expand)</title>
<path fill="none" stroke="black" d="M992.7,-215.96C989.01,-205.64 984.42,-192.16 981,-180 975.25,-159.55 970.03,-136.09 966.37,-118.39"/>
<polygon fill="black" stroke="black" points="969.72,-117.3 964.3,-108.2 962.86,-118.69 969.72,-117.3"/>
</g>
<!-- [root] var.pip_name -->
<g id="node15" class="node">
<title>[root] var.pip_name</title>
<polygon fill="none" stroke="black" points="1094.5,-180 989.5,-180 989.5,-144 1100.5,-144 1100.5,-174 1094.5,-180"/>
<polyline fill="none" stroke="black" points="1094.5,-180 1094.5,-174 "/>
<polyline fill="none" stroke="black" points="1100.5,-174 1094.5,-174 "/>
<text text-anchor="middle" x="1045" y="-158.3" font-family="Times,serif" font-size="14.00">var.pip_name</text>
</g>
<!-- [root] azurerm_public_ip.pip_vm (expand)&#45;&gt;[root] var.pip_name -->
<g id="edge9" class="edge">
<title>[root] azurerm_public_ip.pip_vm (expand)&#45;&gt;[root] var.pip_name</title>
<path fill="none" stroke="black" d="M1010.37,-215.7C1015.72,-207.56 1022.2,-197.69 1028.11,-188.7"/>
<polygon fill="black" stroke="black" points="1031.19,-190.38 1033.76,-180.1 1025.34,-186.54 1031.19,-190.38"/>
</g>
<!-- [root] var.vm_name -->
<g id="node22" class="node">
<title>[root] var.vm_name</title>
<polygon fill="none" stroke="black" points="1223,-180 1119,-180 1119,-144 1229,-144 1229,-174 1223,-180"/>
<polyline fill="none" stroke="black" points="1223,-180 1223,-174 "/>
<polyline fill="none" stroke="black" points="1229,-174 1223,-174 "/>
<text text-anchor="middle" x="1174" y="-158.3" font-family="Times,serif" font-size="14.00">var.vm_name</text>
</g>
<!-- [root] azurerm_public_ip.pip_vm (expand)&#45;&gt;[root] var.vm_name -->
<g id="edge10" class="edge">
<title>[root] azurerm_public_ip.pip_vm (expand)&#45;&gt;[root] var.vm_name</title>
<path fill="none" stroke="black" d="M1041.81,-215.88C1065.95,-206.22 1096.28,-194.09 1121.81,-183.88"/>
<polygon fill="black" stroke="black" points="1123.34,-187.03 1131.33,-180.07 1120.74,-180.53 1123.34,-187.03"/>
</g>
<!-- [root] provider[&quot;registry.terraform.io/hashicorp/azurerm&quot;] -->
<g id="node11" class="node">
<title>[root] provider[&quot;registry.terraform.io/hashicorp/azurerm&quot;]</title>
<polygon fill="none" stroke="black" points="539,-36 184.41,-18 539,0 893.59,-18 539,-36"/>
<text text-anchor="middle" x="539" y="-14.3" font-family="Times,serif" font-size="14.00">provider[&quot;registry.terraform.io/hashicorp/azurerm&quot;]</text>
</g>
<!-- [root] azurerm_resource_group.rg_terraform (expand)&#45;&gt;[root] provider[&quot;registry.terraform.io/hashicorp/azurerm&quot;] -->
<g id="edge11" class="edge">
<title>[root] azurerm_resource_group.rg_terraform (expand)&#45;&gt;[root] provider[&quot;registry.terraform.io/hashicorp/azurerm&quot;]</title>
<path fill="none" stroke="black" d="M858.31,-71.97C787.76,-60.26 695.05,-44.89 627.72,-33.72"/>
<polygon fill="black" stroke="black" points="627.99,-30.21 617.56,-32.03 626.85,-37.12 627.99,-30.21"/>
</g>
<!-- [root] var.location -->
<g id="node14" class="node">
<title>[root] var.location</title>
<polygon fill="none" stroke="black" points="1004.5,-36 911.5,-36 911.5,0 1010.5,0 1010.5,-30 1004.5,-36"/>
<polyline fill="none" stroke="black" points="1004.5,-36 1004.5,-30 "/>
<polyline fill="none" stroke="black" points="1010.5,-30 1004.5,-30 "/>
<text text-anchor="middle" x="961" y="-14.3" font-family="Times,serif" font-size="14.00">var.location</text>
</g>
<!-- [root] azurerm_resource_group.rg_terraform (expand)&#45;&gt;[root] var.location -->
<g id="edge12" class="edge">
<title>[root] azurerm_resource_group.rg_terraform (expand)&#45;&gt;[root] var.location</title>
<path fill="none" stroke="black" d="M961,-71.7C961,-63.98 961,-54.71 961,-46.11"/>
<polygon fill="black" stroke="black" points="964.5,-46.1 961,-36.1 957.5,-46.1 964.5,-46.1"/>
</g>
<!-- [root] var.rg_name -->
<g id="node18" class="node">
<title>[root] var.rg_name</title>
<polygon fill="none" stroke="black" points="1127,-36 1029,-36 1029,0 1133,0 1133,-30 1127,-36"/>
<polyline fill="none" stroke="black" points="1127,-36 1127,-30 "/>
<polyline fill="none" stroke="black" points="1133,-30 1127,-30 "/>
<text text-anchor="middle" x="1081" y="-14.3" font-family="Times,serif" font-size="14.00">var.rg_name</text>
</g>
<!-- [root] azurerm_resource_group.rg_terraform (expand)&#45;&gt;[root] var.rg_name -->
<g id="edge13" class="edge">
<title>[root] azurerm_resource_group.rg_terraform (expand)&#45;&gt;[root] var.rg_name</title>
<path fill="none" stroke="black" d="M990.36,-71.88C1006.05,-62.72 1025.56,-51.34 1042.45,-41.48"/>
<polygon fill="black" stroke="black" points="1044.66,-44.25 1051.53,-36.19 1041.13,-38.21 1044.66,-44.25"/>
</g>
<!-- [root] azurerm_virtual_network.vnet (expand) -->
<g id="node8" class="node">
<title>[root] azurerm_virtual_network.vnet (expand)</title>
<polygon fill="none" stroke="black" points="519,-180 287,-180 287,-144 519,-144 519,-180"/>
<text text-anchor="middle" x="403" y="-158.3" font-family="Times,serif" font-size="14.00">azurerm_virtual_network.vnet</text>
</g>
<!-- [root] azurerm_subnet.public_subnet (expand)&#45;&gt;[root] azurerm_virtual_network.vnet (expand) -->
<g id="edge14" class="edge">
<title>[root] azurerm_subnet.public_subnet (expand)&#45;&gt;[root] azurerm_virtual_network.vnet (expand)</title>
<path fill="none" stroke="black" d="M636.81,-215.97C591.86,-205.78 534.63,-192.82 488.04,-182.26"/>
<polygon fill="black" stroke="black" points="488.79,-178.85 478.26,-180.05 487.24,-185.67 488.79,-178.85"/>
</g>
<!-- [root] var.public_subnet_name -->
<g id="node16" class="node">
<title>[root] var.public_subnet_name</title>
<polygon fill="none" stroke="black" points="719,-180 537,-180 537,-144 725,-144 725,-174 719,-180"/>
<polyline fill="none" stroke="black" points="719,-180 719,-174 "/>
<polyline fill="none" stroke="black" points="725,-174 719,-174 "/>
<text text-anchor="middle" x="631" y="-158.3" font-family="Times,serif" font-size="14.00">var.public_subnet_name</text>
</g>
<!-- [root] azurerm_subnet.public_subnet (expand)&#45;&gt;[root] var.public_subnet_name -->
<g id="edge15" class="edge">
<title>[root] azurerm_subnet.public_subnet (expand)&#45;&gt;[root] var.public_subnet_name</title>
<path fill="none" stroke="black" d="M691.98,-215.7C681.87,-206.97 669.46,-196.24 658.48,-186.75"/>
<polygon fill="black" stroke="black" points="660.65,-183.99 650.79,-180.1 656.07,-189.29 660.65,-183.99"/>
</g>
<!-- [root] var.public_subnet_prefix -->
<g id="node17" class="node">
<title>[root] var.public_subnet_prefix</title>
<polygon fill="none" stroke="black" points="927,-180 743,-180 743,-144 933,-144 933,-174 927,-180"/>
<polyline fill="none" stroke="black" points="927,-180 927,-174 "/>
<polyline fill="none" stroke="black" points="933,-174 927,-174 "/>
<text text-anchor="middle" x="838" y="-158.3" font-family="Times,serif" font-size="14.00">var.public_subnet_prefix</text>
</g>
<!-- [root] azurerm_subnet.public_subnet (expand)&#45;&gt;[root] var.public_subnet_prefix -->
<g id="edge16" class="edge">
<title>[root] azurerm_subnet.public_subnet (expand)&#45;&gt;[root] var.public_subnet_prefix</title>
<path fill="none" stroke="black" d="M742.82,-215.88C759.45,-206.64 780.16,-195.13 798.02,-185.21"/>
<polygon fill="black" stroke="black" points="800.02,-188.11 807.06,-180.19 796.62,-181.99 800.02,-188.11"/>
</g>
<!-- [root] azurerm_virtual_machine_extension.vm_extension (expand) -->
<g id="node7" class="node">
<title>[root] azurerm_virtual_machine_extension.vm_extension (expand)</title>
<polygon fill="none" stroke="black" points="582.5,-468 207.5,-468 207.5,-432 582.5,-432 582.5,-468"/>
<text text-anchor="middle" x="395" y="-446.3" font-family="Times,serif" font-size="14.00">azurerm_virtual_machine_extension.vm_extension</text>
</g>
<!-- [root] azurerm_windows_virtual_machine.vm_terraform (expand) -->
<g id="node9" class="node">
<title>[root] azurerm_windows_virtual_machine.vm_terraform (expand)</title>
<polygon fill="none" stroke="black" points="491.5,-396 122.5,-396 122.5,-360 491.5,-360 491.5,-396"/>
<text text-anchor="middle" x="307" y="-374.3" font-family="Times,serif" font-size="14.00">azurerm_windows_virtual_machine.vm_terraform</text>
</g>
<!-- [root] azurerm_virtual_machine_extension.vm_extension (expand)&#45;&gt;[root] azurerm_windows_virtual_machine.vm_terraform (expand) -->
<g id="edge17" class="edge">
<title>[root] azurerm_virtual_machine_extension.vm_extension (expand)&#45;&gt;[root] azurerm_windows_virtual_machine.vm_terraform (expand)</title>
<path fill="none" stroke="black" d="M373.25,-431.7C362.16,-422.88 348.53,-412.03 336.51,-402.47"/>
<polygon fill="black" stroke="black" points="338.51,-399.59 328.5,-396.1 334.15,-405.07 338.51,-399.59"/>
</g>
<!-- [root] azurerm_virtual_network.vnet (expand)&#45;&gt;[root] azurerm_resource_group.rg_terraform (expand) -->
<g id="edge18" class="edge">
<title>[root] azurerm_virtual_network.vnet (expand)&#45;&gt;[root] azurerm_resource_group.rg_terraform (expand)</title>
<path fill="none" stroke="black" d="M519.1,-145.16C522.1,-144.76 525.07,-144.38 528,-144 620.93,-131.99 725.17,-119.21 808.08,-109.21"/>
<polygon fill="black" stroke="black" points="808.57,-112.68 818.08,-108.01 807.74,-105.73 808.57,-112.68"/>
</g>
<!-- [root] var.vnet_cidr -->
<g id="node25" class="node">
<title>[root] var.vnet_cidr</title>
<polygon fill="none" stroke="black" points="518.5,-108 415.5,-108 415.5,-72 524.5,-72 524.5,-102 518.5,-108"/>
<polyline fill="none" stroke="black" points="518.5,-108 518.5,-102 "/>
<polyline fill="none" stroke="black" points="524.5,-102 518.5,-102 "/>
<text text-anchor="middle" x="470" y="-86.3" font-family="Times,serif" font-size="14.00">var.vnet_cidr</text>
</g>
<!-- [root] azurerm_virtual_network.vnet (expand)&#45;&gt;[root] var.vnet_cidr -->
<g id="edge19" class="edge">
<title>[root] azurerm_virtual_network.vnet (expand)&#45;&gt;[root] var.vnet_cidr</title>
<path fill="none" stroke="black" d="M419.56,-143.7C427.68,-135.22 437.59,-124.86 446.47,-115.58"/>
<polygon fill="black" stroke="black" points="449.24,-117.75 453.63,-108.1 444.19,-112.91 449.24,-117.75"/>
</g>
<!-- [root] var.vnet_name -->
<g id="node26" class="node">
<title>[root] var.vnet_name</title>
<polygon fill="none" stroke="black" points="391,-108 277,-108 277,-72 397,-72 397,-102 391,-108"/>
<polyline fill="none" stroke="black" points="391,-108 391,-102 "/>
<polyline fill="none" stroke="black" points="397,-102 391,-102 "/>
<text text-anchor="middle" x="337" y="-86.3" font-family="Times,serif" font-size="14.00">var.vnet_name</text>
</g>
<!-- [root] azurerm_virtual_network.vnet (expand)&#45;&gt;[root] var.vnet_name -->
<g id="edge20" class="edge">
<title>[root] azurerm_virtual_network.vnet (expand)&#45;&gt;[root] var.vnet_name</title>
<path fill="none" stroke="black" d="M386.69,-143.7C378.69,-135.22 368.93,-124.86 360.18,-115.58"/>
<polygon fill="black" stroke="black" points="362.53,-112.98 353.13,-108.1 357.44,-117.78 362.53,-112.98"/>
</g>
<!-- [root] azurerm_windows_virtual_machine.vm_terraform (expand)&#45;&gt;[root] azurerm_network_interface.vm_nic (expand) -->
<g id="edge21" class="edge">
<title>[root] azurerm_windows_virtual_machine.vm_terraform (expand)&#45;&gt;[root] azurerm_network_interface.vm_nic (expand)</title>
<path fill="none" stroke="black" d="M405.56,-359.97C465.33,-349.63 541.68,-336.44 603.22,-325.8"/>
<polygon fill="black" stroke="black" points="604.1,-329.2 613.35,-324.05 602.9,-322.3 604.1,-329.2"/>
</g>
<!-- [root] var.admin_pwd -->
<g id="node12" class="node">
<title>[root] var.admin_pwd</title>
<polygon fill="none" stroke="black" points="118,-324 0,-324 0,-288 124,-288 124,-318 118,-324"/>
<polyline fill="none" stroke="black" points="118,-324 118,-318 "/>
<polyline fill="none" stroke="black" points="124,-318 118,-318 "/>
<text text-anchor="middle" x="62" y="-302.3" font-family="Times,serif" font-size="14.00">var.admin_pwd</text>
</g>
<!-- [root] azurerm_windows_virtual_machine.vm_terraform (expand)&#45;&gt;[root] var.admin_pwd -->
<g id="edge22" class="edge">
<title>[root] azurerm_windows_virtual_machine.vm_terraform (expand)&#45;&gt;[root] var.admin_pwd</title>
<path fill="none" stroke="black" d="M247.38,-359.97C212.55,-350.01 168.42,-337.41 131.96,-326.99"/>
<polygon fill="black" stroke="black" points="132.46,-323.49 121.89,-324.11 130.54,-330.22 132.46,-323.49"/>
</g>
<!-- [root] var.admin_user -->
<g id="node13" class="node">
<title>[root] var.admin_user</title>
<polygon fill="none" stroke="black" points="261.5,-324 142.5,-324 142.5,-288 267.5,-288 267.5,-318 261.5,-324"/>
<polyline fill="none" stroke="black" points="261.5,-324 261.5,-318 "/>
<polyline fill="none" stroke="black" points="267.5,-318 261.5,-318 "/>
<text text-anchor="middle" x="205" y="-302.3" font-family="Times,serif" font-size="14.00">var.admin_user</text>
</g>
<!-- [root] azurerm_windows_virtual_machine.vm_terraform (expand)&#45;&gt;[root] var.admin_user -->
<g id="edge23" class="edge">
<title>[root] azurerm_windows_virtual_machine.vm_terraform (expand)&#45;&gt;[root] var.admin_user</title>
<path fill="none" stroke="black" d="M282.05,-359.88C268.96,-350.89 252.74,-339.76 238.56,-330.03"/>
<polygon fill="black" stroke="black" points="240.27,-326.96 230.05,-324.19 236.31,-332.73 240.27,-326.96"/>
</g>
<!-- [root] var.vm_disk -->
<g id="node20" class="node">
<title>[root] var.vm_disk</title>
<polygon fill="none" stroke="black" points="380.5,-324 285.5,-324 285.5,-288 386.5,-288 386.5,-318 380.5,-324"/>
<polyline fill="none" stroke="black" points="380.5,-324 380.5,-318 "/>
<polyline fill="none" stroke="black" points="386.5,-318 380.5,-318 "/>
<text text-anchor="middle" x="336" y="-302.3" font-family="Times,serif" font-size="14.00">var.vm_disk</text>
</g>
<!-- [root] azurerm_windows_virtual_machine.vm_terraform (expand)&#45;&gt;[root] var.vm_disk -->
<g id="edge24" class="edge">
<title>[root] azurerm_windows_virtual_machine.vm_terraform (expand)&#45;&gt;[root] var.vm_disk</title>
<path fill="none" stroke="black" d="M314.17,-359.7C317.43,-351.81 321.37,-342.3 325,-333.55"/>
<polygon fill="black" stroke="black" points="328.32,-334.68 328.91,-324.1 321.85,-332 328.32,-334.68"/>
</g>
<!-- [root] var.vm_size -->
<g id="node24" class="node">
<title>[root] var.vm_size</title>
<polygon fill="none" stroke="black" points="497.5,-324 404.5,-324 404.5,-288 503.5,-288 503.5,-318 497.5,-324"/>
<polyline fill="none" stroke="black" points="497.5,-324 497.5,-318 "/>
<polyline fill="none" stroke="black" points="503.5,-318 497.5,-318 "/>
<text text-anchor="middle" x="454" y="-302.3" font-family="Times,serif" font-size="14.00">var.vm_size</text>
</g>
<!-- [root] azurerm_windows_virtual_machine.vm_terraform (expand)&#45;&gt;[root] var.vm_size -->
<g id="edge25" class="edge">
<title>[root] azurerm_windows_virtual_machine.vm_terraform (expand)&#45;&gt;[root] var.vm_size</title>
<path fill="none" stroke="black" d="M342.96,-359.88C362.88,-350.39 387.82,-338.51 409.02,-328.42"/>
<polygon fill="black" stroke="black" points="410.63,-331.53 418.16,-324.07 407.62,-325.21 410.63,-331.53"/>
</g>
<!-- [root] output.fqdn -->
<g id="node10" class="node">
<title>[root] output.fqdn</title>
<polygon fill="none" stroke="black" points="1043.5,-468 948.5,-468 948.5,-432 1049.5,-432 1049.5,-462 1043.5,-468"/>
<polyline fill="none" stroke="black" points="1043.5,-468 1043.5,-462 "/>
<polyline fill="none" stroke="black" points="1049.5,-462 1043.5,-462 "/>
<text text-anchor="middle" x="999" y="-446.3" font-family="Times,serif" font-size="14.00">output.fqdn</text>
</g>
<!-- [root] output.fqdn&#45;&gt;[root] azurerm_public_ip.pip_vm (expand) -->
<g id="edge26" class="edge">
<title>[root] output.fqdn&#45;&gt;[root] azurerm_public_ip.pip_vm (expand)</title>
<path fill="none" stroke="black" d="M999,-431.85C999,-394.83 999,-307.18 999,-262.39"/>
<polygon fill="black" stroke="black" points="1002.5,-262.23 999,-252.23 995.5,-262.23 1002.5,-262.23"/>
</g>
<!-- [root] var.vm_extension -->
<g id="node21" class="node">
<title>[root] var.vm_extension</title>
<polygon fill="none" stroke="black" points="1161,-540 1027,-540 1027,-504 1167,-504 1167,-534 1161,-540"/>
<polyline fill="none" stroke="black" points="1161,-540 1161,-534 "/>
<polyline fill="none" stroke="black" points="1167,-534 1161,-534 "/>
<text text-anchor="middle" x="1097" y="-518.3" font-family="Times,serif" font-size="14.00">var.vm_extension</text>
</g>
<!-- [root] provider[&quot;registry.terraform.io/hashicorp/azurerm&quot;] (close) -->
<g id="node27" class="node">
<title>[root] provider[&quot;registry.terraform.io/hashicorp/azurerm&quot;] (close)</title>
<ellipse fill="none" stroke="black" cx="658" cy="-522" rx="313.04" ry="18"/>
<text text-anchor="middle" x="658" y="-518.3" font-family="Times,serif" font-size="14.00">[root] provider[&quot;registry.terraform.io/hashicorp/azurerm&quot;] (close)</text>
</g>
<!-- [root] provider[&quot;registry.terraform.io/hashicorp/azurerm&quot;] (close)&#45;&gt;[root] azurerm_network_interface_security_group_association.nic_sg (expand) -->
<g id="edge27" class="edge">
<title>[root] provider[&quot;registry.terraform.io/hashicorp/azurerm&quot;] (close)&#45;&gt;[root] azurerm_network_interface_security_group_association.nic_sg (expand)</title>
<path fill="none" stroke="black" d="M667.89,-503.87C682.11,-479.24 708.45,-433.64 725.05,-404.88"/>
<polygon fill="black" stroke="black" points="728.1,-406.6 730.07,-396.19 722.04,-403.1 728.1,-406.6"/>
</g>
<!-- [root] provider[&quot;registry.terraform.io/hashicorp/azurerm&quot;] (close)&#45;&gt;[root] azurerm_virtual_machine_extension.vm_extension (expand) -->
<g id="edge28" class="edge">
<title>[root] provider[&quot;registry.terraform.io/hashicorp/azurerm&quot;] (close)&#45;&gt;[root] azurerm_virtual_machine_extension.vm_extension (expand)</title>
<path fill="none" stroke="black" d="M595.34,-504.32C557.3,-494.2 508.56,-481.23 468.68,-470.61"/>
<polygon fill="black" stroke="black" points="469.57,-467.23 459.01,-468.04 467.77,-473.99 469.57,-467.23"/>
</g>
<!-- [root] root -->
<g id="node28" class="node">
<title>[root] root</title>
<ellipse fill="none" stroke="black" cx="999" cy="-594" rx="58.49" ry="18"/>
<text text-anchor="middle" x="999" y="-590.3" font-family="Times,serif" font-size="14.00">[root] root</text>
</g>
<!-- [root] root&#45;&gt;[root] output.fqdn -->
<g id="edge29" class="edge">
<title>[root] root&#45;&gt;[root] output.fqdn</title>
<path fill="none" stroke="black" d="M999,-575.87C999,-551.67 999,-507.21 999,-478.39"/>
<polygon fill="black" stroke="black" points="1002.5,-478.19 999,-468.19 995.5,-478.19 1002.5,-478.19"/>
</g>
<!-- [root] root&#45;&gt;[root] var.vm_extension -->
<g id="edge31" class="edge">
<title>[root] root&#45;&gt;[root] var.vm_extension</title>
<path fill="none" stroke="black" d="M1021.24,-577.12C1034.05,-567.96 1050.39,-556.29 1064.61,-546.14"/>
<polygon fill="black" stroke="black" points="1067.04,-548.7 1073.14,-540.04 1062.97,-543.01 1067.04,-548.7"/>
</g>
<!-- [root] root&#45;&gt;[root] provider[&quot;registry.terraform.io/hashicorp/azurerm&quot;] (close) -->
<g id="edge30" class="edge">
<title>[root] root&#45;&gt;[root] provider[&quot;registry.terraform.io/hashicorp/azurerm&quot;] (close)</title>
<path fill="none" stroke="black" d="M951.59,-583.27C899.1,-572.49 813.31,-554.88 747.98,-541.47"/>
<polygon fill="black" stroke="black" points="748.59,-538.02 738.09,-539.44 747.18,-544.88 748.59,-538.02"/>
</g>
</g>
</svg>
