<?xml version="1.0" encoding="UTF-8" standalone="no"?>
<!DOCTYPE svg PUBLIC "-//W3C//DTD SVG 1.1//EN"
 "http://www.w3.org/Graphics/SVG/1.1/DTD/svg11.dtd">
<!-- Generated by graphviz version 2.43.0 (0)
 -->
<!-- Title: %3 Pages: 1 -->
<svg width="4896pt" height="764pt"
 viewBox="0.00 0.00 4895.56 764.00" xmlns="http://www.w3.org/2000/svg" xmlns:xlink="http://www.w3.org/1999/xlink">
<g id="graph0" class="graph" transform="scale(1 1) rotate(0) translate(4 760)">
<title>%3</title>
<polygon fill="white" stroke="transparent" points="-4,4 -4,-760 4891.56,-760 4891.56,4 -4,4"/>
<!-- [root] azurerm_resource_group.rg_lab (expand) -->
<g id="node1" class="node">
<title>[root] azurerm_resource_group.rg_lab (expand)</title>
<polygon fill="none" stroke="black" points="2835.48,-108 2592.48,-108 2592.48,-72 2835.48,-72 2835.48,-108"/>
<text text-anchor="middle" x="2713.98" y="-86.3" font-family="Times,serif" font-size="14.00">azurerm_resource_group.rg_lab</text>
</g>
<!-- [root] provider[&quot;registry.terraform.io/hashicorp/azurerm&quot;] -->
<g id="node8" class="node">
<title>[root] provider[&quot;registry.terraform.io/hashicorp/azurerm&quot;]</title>
<polygon fill="none" stroke="black" points="2291.98,-36 1937.39,-18 2291.98,0 2646.57,-18 2291.98,-36"/>
<text text-anchor="middle" x="2291.98" y="-14.3" font-family="Times,serif" font-size="14.00">provider[&quot;registry.terraform.io/hashicorp/azurerm&quot;]</text>
</g>
<!-- [root] azurerm_resource_group.rg_lab (expand)&#45;&gt;[root] provider[&quot;registry.terraform.io/hashicorp/azurerm&quot;] -->
<g id="edge1" class="edge">
<title>[root] azurerm_resource_group.rg_lab (expand)&#45;&gt;[root] provider[&quot;registry.terraform.io/hashicorp/azurerm&quot;]</title>
<path fill="none" stroke="black" d="M2611.29,-71.97C2540.74,-60.26 2448.04,-44.89 2380.7,-33.72"/>
<polygon fill="black" stroke="black" points="2380.98,-30.21 2370.54,-32.03 2379.83,-37.12 2380.98,-30.21"/>
</g>
<!-- [root] var.location -->
<g id="node9" class="node">
<title>[root] var.location</title>
<polygon fill="none" stroke="black" points="2757.48,-36 2664.48,-36 2664.48,0 2763.48,0 2763.48,-30 2757.48,-36"/>
<polyline fill="none" stroke="black" points="2757.48,-36 2757.48,-30 "/>
<polyline fill="none" stroke="black" points="2763.48,-30 2757.48,-30 "/>
<text text-anchor="middle" x="2713.98" y="-14.3" font-family="Times,serif" font-size="14.00">var.location</text>
</g>
<!-- [root] azurerm_resource_group.rg_lab (expand)&#45;&gt;[root] var.location -->
<g id="edge2" class="edge">
<title>[root] azurerm_resource_group.rg_lab (expand)&#45;&gt;[root] var.location</title>
<path fill="none" stroke="black" d="M2713.98,-71.7C2713.98,-63.98 2713.98,-54.71 2713.98,-46.11"/>
<polygon fill="black" stroke="black" points="2717.48,-46.1 2713.98,-36.1 2710.48,-46.1 2717.48,-46.1"/>
</g>
<!-- [root] var.rg_name -->
<g id="node10" class="node">
<title>[root] var.rg_name</title>
<polygon fill="none" stroke="black" points="2879.98,-36 2781.98,-36 2781.98,0 2885.98,0 2885.98,-30 2879.98,-36"/>
<polyline fill="none" stroke="black" points="2879.98,-36 2879.98,-30 "/>
<polyline fill="none" stroke="black" points="2885.98,-30 2879.98,-30 "/>
<text text-anchor="middle" x="2833.98" y="-14.3" font-family="Times,serif" font-size="14.00">var.rg_name</text>
</g>
<!-- [root] azurerm_resource_group.rg_lab (expand)&#45;&gt;[root] var.rg_name -->
<g id="edge3" class="edge">
<title>[root] azurerm_resource_group.rg_lab (expand)&#45;&gt;[root] var.rg_name</title>
<path fill="none" stroke="black" d="M2743.34,-71.88C2759.03,-62.72 2778.54,-51.34 2795.44,-41.48"/>
<polygon fill="black" stroke="black" points="2797.64,-44.25 2804.51,-36.19 2794.11,-38.21 2797.64,-44.25"/>
</g>
<!-- [root] module.vnet.azurerm_subnet.subnet (expand) -->
<g id="node2" class="node">
<title>[root] module.vnet.azurerm_subnet.subnet (expand)</title>
<polygon fill="none" stroke="black" points="2189.98,-468 1911.98,-468 1911.98,-432 2189.98,-432 2189.98,-468"/>
<text text-anchor="middle" x="2050.98" y="-446.3" font-family="Times,serif" font-size="14.00">module.vnet.azurerm_subnet.subnet</text>
</g>
<!-- [root] module.vnet.azurerm_virtual_network.vnet (expand) -->
<g id="node5" class="node">
<title>[root] module.vnet.azurerm_virtual_network.vnet (expand)</title>
<polygon fill="none" stroke="black" points="3935.48,-396 3610.48,-396 3610.48,-360 3935.48,-360 3935.48,-396"/>
<text text-anchor="middle" x="3772.98" y="-374.3" font-family="Times,serif" font-size="14.00">module.vnet.azurerm_virtual_network.vnet</text>
</g>
<!-- [root] module.vnet.azurerm_subnet.subnet (expand)&#45;&gt;[root] module.vnet.azurerm_virtual_network.vnet (expand) -->
<g id="edge12" class="edge">
<title>[root] module.vnet.azurerm_subnet.subnet (expand)&#45;&gt;[root] module.vnet.azurerm_virtual_network.vnet (expand)</title>
<path fill="none" stroke="black" d="M2190.08,-443.35C2502.34,-430.65 3258.37,-399.92 3600.14,-386.03"/>
<polygon fill="black" stroke="black" points="3600.53,-389.51 3610.37,-385.61 3600.24,-382.52 3600.53,-389.51"/>
</g>
<!-- [root] module.vnet.var.subnet_delegation (expand) -->
<g id="node22" class="node">
<title>[root] module.vnet.var.subnet_delegation (expand)</title>
<ellipse fill="none" stroke="black" cx="2440.98" cy="-234" rx="245.06" ry="18"/>
<text text-anchor="middle" x="2440.98" y="-230.3" font-family="Times,serif" font-size="14.00">[root] module.vnet.var.subnet_delegation (expand)</text>
</g>
<!-- [root] module.vnet.azurerm_subnet.subnet (expand)&#45;&gt;[root] module.vnet.var.subnet_delegation (expand) -->
<g id="edge13" class="edge">
<title>[root] module.vnet.azurerm_subnet.subnet (expand)&#45;&gt;[root] module.vnet.var.subnet_delegation (expand)</title>
<path fill="none" stroke="black" d="M2190.09,-445.5C2347.54,-440.06 2585.94,-426.81 2613.98,-396 2663.11,-342.03 2560.44,-285.33 2493.2,-255.75"/>
<polygon fill="black" stroke="black" points="2494.54,-252.51 2483.97,-251.76 2491.76,-258.94 2494.54,-252.51"/>
</g>
<!-- [root] module.vnet.var.subnet_enforce_private_link_endpoint_network_policies (expand) -->
<g id="node23" class="node">
<title>[root] module.vnet.var.subnet_enforce_private_link_endpoint_network_policies (expand)</title>
<ellipse fill="none" stroke="black" cx="828.98" cy="-234" rx="417.03" ry="18"/>
<text text-anchor="middle" x="828.98" y="-230.3" font-family="Times,serif" font-size="14.00">[root] module.vnet.var.subnet_enforce_private_link_endpoint_network_policies (expand)</text>
</g>
<!-- [root] module.vnet.azurerm_subnet.subnet (expand)&#45;&gt;[root] module.vnet.var.subnet_enforce_private_link_endpoint_network_policies (expand) -->
<g id="edge14" class="edge">
<title>[root] module.vnet.azurerm_subnet.subnet (expand)&#45;&gt;[root] module.vnet.var.subnet_enforce_private_link_endpoint_network_policies (expand)</title>
<path fill="none" stroke="black" d="M1911.76,-447.49C1493.17,-442.6 272.95,-425.83 243.98,-396 178.93,-329.01 484.56,-277.59 678.64,-252.3"/>
<polygon fill="black" stroke="black" points="679.19,-255.76 688.66,-251.01 678.3,-248.82 679.19,-255.76"/>
</g>
<!-- [root] module.vnet.var.subnet_enforce_private_link_service_network_policies (expand) -->
<g id="node24" class="node">
<title>[root] module.vnet.var.subnet_enforce_private_link_service_network_policies (expand)</title>
<ellipse fill="none" stroke="black" cx="661.98" cy="-378" rx="409.43" ry="18"/>
<text text-anchor="middle" x="661.98" y="-374.3" font-family="Times,serif" font-size="14.00">[root] module.vnet.var.subnet_enforce_private_link_service_network_policies (expand)</text>
</g>
<!-- [root] module.vnet.azurerm_subnet.subnet (expand)&#45;&gt;[root] module.vnet.var.subnet_enforce_private_link_service_network_policies (expand) -->
<g id="edge15" class="edge">
<title>[root] module.vnet.azurerm_subnet.subnet (expand)&#45;&gt;[root] module.vnet.var.subnet_enforce_private_link_service_network_policies (expand)</title>
<path fill="none" stroke="black" d="M1911.76,-441.98C1683.04,-430.46 1223.9,-407.32 930.34,-392.52"/>
<polygon fill="black" stroke="black" points="930.13,-389.01 919.97,-392 929.78,-396 930.13,-389.01"/>
</g>
<!-- [root] module.vnet.var.subnet_names (expand) -->
<g id="node25" class="node">
<title>[root] module.vnet.var.subnet_names (expand)</title>
<ellipse fill="none" stroke="black" cx="1315.98" cy="-378" rx="226.66" ry="18"/>
<text text-anchor="middle" x="1315.98" y="-374.3" font-family="Times,serif" font-size="14.00">[root] module.vnet.var.subnet_names (expand)</text>
</g>
<!-- [root] module.vnet.azurerm_subnet.subnet (expand)&#45;&gt;[root] module.vnet.var.subnet_names (expand) -->
<g id="edge16" class="edge">
<title>[root] module.vnet.azurerm_subnet.subnet (expand)&#45;&gt;[root] module.vnet.var.subnet_names (expand)</title>
<path fill="none" stroke="black" d="M1911.87,-435.75C1784.31,-423.6 1595.91,-405.66 1465.24,-393.22"/>
<polygon fill="black" stroke="black" points="1465.44,-389.72 1455.15,-392.25 1464.77,-396.69 1465.44,-389.72"/>
</g>
<!-- [root] module.vnet.var.subnet_prefixes (expand) -->
<g id="node26" class="node">
<title>[root] module.vnet.var.subnet_prefixes (expand)</title>
<ellipse fill="none" stroke="black" cx="1793.98" cy="-378" rx="233.16" ry="18"/>
<text text-anchor="middle" x="1793.98" y="-374.3" font-family="Times,serif" font-size="14.00">[root] module.vnet.var.subnet_prefixes (expand)</text>
</g>
<!-- [root] module.vnet.azurerm_subnet.subnet (expand)&#45;&gt;[root] module.vnet.var.subnet_prefixes (expand) -->
<g id="edge17" class="edge">
<title>[root] module.vnet.azurerm_subnet.subnet (expand)&#45;&gt;[root] module.vnet.var.subnet_prefixes (expand)</title>
<path fill="none" stroke="black" d="M1988.44,-431.97C1950.91,-421.74 1903.08,-408.72 1864.25,-398.14"/>
<polygon fill="black" stroke="black" points="1865.15,-394.76 1854.58,-395.51 1863.31,-401.51 1865.15,-394.76"/>
</g>
<!-- [root] module.vnet.var.subnet_service_endpoints (expand) -->
<g id="node27" class="node">
<title>[root] module.vnet.var.subnet_service_endpoints (expand)</title>
<ellipse fill="none" stroke="black" cx="2324.98" cy="-378" rx="280.25" ry="18"/>
<text text-anchor="middle" x="2324.98" y="-374.3" font-family="Times,serif" font-size="14.00">[root] module.vnet.var.subnet_service_endpoints (expand)</text>
</g>
<!-- [root] module.vnet.azurerm_subnet.subnet (expand)&#45;&gt;[root] module.vnet.var.subnet_service_endpoints (expand) -->
<g id="edge18" class="edge">
<title>[root] module.vnet.azurerm_subnet.subnet (expand)&#45;&gt;[root] module.vnet.var.subnet_service_endpoints (expand)</title>
<path fill="none" stroke="black" d="M2117.66,-431.97C2157.7,-421.74 2208.72,-408.7 2250.14,-398.12"/>
<polygon fill="black" stroke="black" points="2251.08,-401.49 2259.9,-395.63 2249.35,-394.71 2251.08,-401.49"/>
</g>
<!-- [root] module.vnet.azurerm_subnet_network_security_group_association.vnet (expand) -->
<g id="node3" class="node">
<title>[root] module.vnet.azurerm_subnet_network_security_group_association.vnet (expand)</title>
<polygon fill="none" stroke="black" points="2273.98,-612 1747.98,-612 1747.98,-576 2273.98,-576 2273.98,-612"/>
<text text-anchor="middle" x="2010.98" y="-590.3" font-family="Times,serif" font-size="14.00">module.vnet.azurerm_subnet_network_security_group_association.vnet</text>
</g>
<!-- [root] module.vnet.local.azurerm_subnets (expand) -->
<g id="node28" class="node">
<title>[root] module.vnet.local.azurerm_subnets (expand)</title>
<ellipse fill="none" stroke="black" cx="2050.98" cy="-522" rx="247.76" ry="18"/>
<text text-anchor="middle" x="2050.98" y="-518.3" font-family="Times,serif" font-size="14.00">[root] module.vnet.local.azurerm_subnets (expand)</text>
</g>
<!-- [root] module.vnet.azurerm_subnet_network_security_group_association.vnet (expand)&#45;&gt;[root] module.vnet.local.azurerm_subnets (expand) -->
<g id="edge19" class="edge">
<title>[root] module.vnet.azurerm_subnet_network_security_group_association.vnet (expand)&#45;&gt;[root] module.vnet.local.azurerm_subnets (expand)</title>
<path fill="none" stroke="black" d="M2020.87,-575.7C2025.47,-567.64 2031.04,-557.89 2036.14,-548.98"/>
<polygon fill="black" stroke="black" points="2039.29,-550.52 2041.21,-540.1 2033.21,-547.05 2039.29,-550.52"/>
</g>
<!-- [root] module.vnet.var.nsg_ids (expand) -->
<g id="node29" class="node">
<title>[root] module.vnet.var.nsg_ids (expand)</title>
<ellipse fill="none" stroke="black" cx="194.98" cy="-234" rx="194.97" ry="18"/>
<text text-anchor="middle" x="194.98" y="-230.3" font-family="Times,serif" font-size="14.00">[root] module.vnet.var.nsg_ids (expand)</text>
</g>
<!-- [root] module.vnet.azurerm_subnet_network_security_group_association.vnet (expand)&#45;&gt;[root] module.vnet.var.nsg_ids (expand) -->
<g id="edge20" class="edge">
<title>[root] module.vnet.azurerm_subnet_network_security_group_association.vnet (expand)&#45;&gt;[root] module.vnet.var.nsg_ids (expand)</title>
<path fill="none" stroke="black" d="M1747.71,-585.78C1242.58,-570.18 186.98,-528.32 186.98,-451 186.98,-451 186.98,-451 186.98,-377 186.98,-336.93 190.2,-290.61 192.55,-262.05"/>
<polygon fill="black" stroke="black" points="196.04,-262.29 193.4,-252.03 189.07,-261.7 196.04,-262.29"/>
</g>
<!-- [root] module.vnet.azurerm_subnet_route_table_association.vnet (expand) -->
<g id="node4" class="node">
<title>[root] module.vnet.azurerm_subnet_route_table_association.vnet (expand)</title>
<polygon fill="none" stroke="black" points="2727.48,-612 2292.48,-612 2292.48,-576 2727.48,-576 2727.48,-612"/>
<text text-anchor="middle" x="2509.98" y="-590.3" font-family="Times,serif" font-size="14.00">module.vnet.azurerm_subnet_route_table_association.vnet</text>
</g>
<!-- [root] module.vnet.azurerm_subnet_route_table_association.vnet (expand)&#45;&gt;[root] module.vnet.local.azurerm_subnets (expand) -->
<g id="edge21" class="edge">
<title>[root] module.vnet.azurerm_subnet_route_table_association.vnet (expand)&#45;&gt;[root] module.vnet.local.azurerm_subnets (expand)</title>
<path fill="none" stroke="black" d="M2398.29,-575.97C2326.56,-565.03 2233.78,-550.88 2162.16,-539.95"/>
<polygon fill="black" stroke="black" points="2162.61,-536.48 2152.19,-538.44 2161.55,-543.4 2162.61,-536.48"/>
</g>
<!-- [root] module.vnet.var.route_tables_ids (expand) -->
<g id="node30" class="node">
<title>[root] module.vnet.var.route_tables_ids (expand)</title>
<ellipse fill="none" stroke="black" cx="2631.98" cy="-522" rx="235.86" ry="18"/>
<text text-anchor="middle" x="2631.98" y="-518.3" font-family="Times,serif" font-size="14.00">[root] module.vnet.var.route_tables_ids (expand)</text>
</g>
<!-- [root] module.vnet.azurerm_subnet_route_table_association.vnet (expand)&#45;&gt;[root] module.vnet.var.route_tables_ids (expand) -->
<g id="edge22" class="edge">
<title>[root] module.vnet.azurerm_subnet_route_table_association.vnet (expand)&#45;&gt;[root] module.vnet.var.route_tables_ids (expand)</title>
<path fill="none" stroke="black" d="M2539.83,-575.88C2556.05,-566.57 2576.28,-554.96 2593.66,-544.99"/>
<polygon fill="black" stroke="black" points="2595.51,-547.96 2602.45,-539.95 2592.03,-541.89 2595.51,-547.96"/>
</g>
<!-- [root] module.vnet.data.azurerm_resource_group.vnet (expand) -->
<g id="node6" class="node">
<title>[root] module.vnet.data.azurerm_resource_group.vnet (expand)</title>
<polygon fill="none" stroke="black" points="4371.48,-324 4012.48,-324 4012.48,-288 4371.48,-288 4371.48,-324"/>
<text text-anchor="middle" x="4191.98" y="-302.3" font-family="Times,serif" font-size="14.00">module.vnet.data.azurerm_resource_group.vnet</text>
</g>
<!-- [root] module.vnet.azurerm_virtual_network.vnet (expand)&#45;&gt;[root] module.vnet.data.azurerm_resource_group.vnet (expand) -->
<g id="edge23" class="edge">
<title>[root] module.vnet.azurerm_virtual_network.vnet (expand)&#45;&gt;[root] module.vnet.data.azurerm_resource_group.vnet (expand)</title>
<path fill="none" stroke="black" d="M3874.95,-359.97C3936.91,-349.61 4016.1,-336.38 4079.84,-325.74"/>
<polygon fill="black" stroke="black" points="4080.64,-329.15 4089.93,-324.05 4079.49,-322.25 4080.64,-329.15"/>
</g>
<!-- [root] module.vnet.var.address_space (expand) -->
<g id="node31" class="node">
<title>[root] module.vnet.var.address_space (expand)</title>
<ellipse fill="none" stroke="black" cx="3305.98" cy="-306" rx="227.46" ry="18"/>
<text text-anchor="middle" x="3305.98" y="-302.3" font-family="Times,serif" font-size="14.00">[root] module.vnet.var.address_space (expand)</text>
</g>
<!-- [root] module.vnet.azurerm_virtual_network.vnet (expand)&#45;&gt;[root] module.vnet.var.address_space (expand) -->
<g id="edge24" class="edge">
<title>[root] module.vnet.azurerm_virtual_network.vnet (expand)&#45;&gt;[root] module.vnet.var.address_space (expand)</title>
<path fill="none" stroke="black" d="M3659.34,-359.97C3585.72,-348.93 3490.29,-334.63 3417.17,-323.67"/>
<polygon fill="black" stroke="black" points="3417.41,-320.16 3407,-322.14 3416.37,-327.09 3417.41,-320.16"/>
</g>
<!-- [root] module.vnet.var.ddos_protection_plan (expand) -->
<g id="node32" class="node">
<title>[root] module.vnet.var.ddos_protection_plan (expand)</title>
<ellipse fill="none" stroke="black" cx="3912.98" cy="-234" rx="258.85" ry="18"/>
<text text-anchor="middle" x="3912.98" y="-230.3" font-family="Times,serif" font-size="14.00">[root] module.vnet.var.ddos_protection_plan (expand)</text>
</g>
<!-- [root] module.vnet.azurerm_virtual_network.vnet (expand)&#45;&gt;[root] module.vnet.var.ddos_protection_plan (expand) -->
<g id="edge25" class="edge">
<title>[root] module.vnet.azurerm_virtual_network.vnet (expand)&#45;&gt;[root] module.vnet.var.ddos_protection_plan (expand)</title>
<path fill="none" stroke="black" d="M3935.72,-373.94C4105.56,-369.02 4351.34,-356.34 4380.98,-324 4391.79,-312.21 4391.64,-299.93 4380.98,-288 4370.81,-276.61 4213.21,-260.47 4083.66,-249"/>
<polygon fill="black" stroke="black" points="4083.87,-245.51 4073.6,-248.11 4083.25,-252.48 4083.87,-245.51"/>
</g>
<!-- [root] module.vnet.var.dns_servers (expand) -->
<g id="node33" class="node">
<title>[root] module.vnet.var.dns_servers (expand)</title>
<ellipse fill="none" stroke="black" cx="4404.98" cy="-234" rx="215.56" ry="18"/>
<text text-anchor="middle" x="4404.98" y="-230.3" font-family="Times,serif" font-size="14.00">[root] module.vnet.var.dns_servers (expand)</text>
</g>
<!-- [root] module.vnet.azurerm_virtual_network.vnet (expand)&#45;&gt;[root] module.vnet.var.dns_servers (expand) -->
<g id="edge26" class="edge">
<title>[root] module.vnet.azurerm_virtual_network.vnet (expand)&#45;&gt;[root] module.vnet.var.dns_servers (expand)</title>
<path fill="none" stroke="black" d="M3935.78,-374.01C4110.39,-369.13 4367.06,-356.47 4398.98,-324 4414.63,-308.09 4414.56,-281.89 4411.51,-262.03"/>
<polygon fill="black" stroke="black" points="4414.92,-261.22 4409.65,-252.03 4408.04,-262.5 4414.92,-261.22"/>
</g>
<!-- [root] module.vnet.var.tags (expand) -->
<g id="node34" class="node">
<title>[root] module.vnet.var.tags (expand)</title>
<ellipse fill="none" stroke="black" cx="2879.98" cy="-306" rx="180.87" ry="18"/>
<text text-anchor="middle" x="2879.98" y="-302.3" font-family="Times,serif" font-size="14.00">[root] module.vnet.var.tags (expand)</text>
</g>
<!-- [root] module.vnet.azurerm_virtual_network.vnet (expand)&#45;&gt;[root] module.vnet.var.tags (expand) -->
<g id="edge27" class="edge">
<title>[root] module.vnet.azurerm_virtual_network.vnet (expand)&#45;&gt;[root] module.vnet.var.tags (expand)</title>
<path fill="none" stroke="black" d="M3610.28,-365.38C3467.76,-355.05 3255.09,-339.26 3069.98,-324 3053.29,-322.62 3035.78,-321.13 3018.42,-319.61"/>
<polygon fill="black" stroke="black" points="3018.49,-316.11 3008.23,-318.72 3017.88,-323.08 3018.49,-316.11"/>
</g>
<!-- [root] module.vnet.var.vnet_location (expand) -->
<g id="node35" class="node">
<title>[root] module.vnet.var.vnet_location (expand)</title>
<ellipse fill="none" stroke="black" cx="3772.98" cy="-306" rx="221.76" ry="18"/>
<text text-anchor="middle" x="3772.98" y="-302.3" font-family="Times,serif" font-size="14.00">[root] module.vnet.var.vnet_location (expand)</text>
</g>
<!-- [root] module.vnet.azurerm_virtual_network.vnet (expand)&#45;&gt;[root] module.vnet.var.vnet_location (expand) -->
<g id="edge28" class="edge">
<title>[root] module.vnet.azurerm_virtual_network.vnet (expand)&#45;&gt;[root] module.vnet.var.vnet_location (expand)</title>
<path fill="none" stroke="black" d="M3772.98,-359.7C3772.98,-351.98 3772.98,-342.71 3772.98,-334.11"/>
<polygon fill="black" stroke="black" points="3776.48,-334.1 3772.98,-324.1 3769.48,-334.1 3776.48,-334.1"/>
</g>
<!-- [root] module.vnet.var.vnet_name (expand) -->
<g id="node36" class="node">
<title>[root] module.vnet.var.vnet_name (expand)</title>
<ellipse fill="none" stroke="black" cx="4676.98" cy="-306" rx="210.66" ry="18"/>
<text text-anchor="middle" x="4676.98" y="-302.3" font-family="Times,serif" font-size="14.00">[root] module.vnet.var.vnet_name (expand)</text>
</g>
<!-- [root] module.vnet.azurerm_virtual_network.vnet (expand)&#45;&gt;[root] module.vnet.var.vnet_name (expand) -->
<g id="edge29" class="edge">
<title>[root] module.vnet.azurerm_virtual_network.vnet (expand)&#45;&gt;[root] module.vnet.var.vnet_name (expand)</title>
<path fill="none" stroke="black" d="M3935.64,-364.4C4100.08,-351.67 4352.65,-332.11 4516.35,-319.44"/>
<polygon fill="black" stroke="black" points="4516.82,-322.91 4526.52,-318.65 4516.28,-315.93 4516.82,-322.91"/>
</g>
<!-- [root] module.vnet.var.resource_group_name (expand) -->
<g id="node37" class="node">
<title>[root] module.vnet.var.resource_group_name (expand)</title>
<ellipse fill="none" stroke="black" cx="3373.98" cy="-234" rx="262.65" ry="18"/>
<text text-anchor="middle" x="3373.98" y="-230.3" font-family="Times,serif" font-size="14.00">[root] module.vnet.var.resource_group_name (expand)</text>
</g>
<!-- [root] module.vnet.data.azurerm_resource_group.vnet (expand)&#45;&gt;[root] module.vnet.var.resource_group_name (expand) -->
<g id="edge30" class="edge">
<title>[root] module.vnet.data.azurerm_resource_group.vnet (expand)&#45;&gt;[root] module.vnet.var.resource_group_name (expand)</title>
<path fill="none" stroke="black" d="M4012.37,-288.73C4009.56,-288.49 4006.76,-288.24 4003.98,-288 3848.68,-274.45 3671.79,-259.62 3545.06,-249.1"/>
<polygon fill="black" stroke="black" points="3545.13,-245.6 3534.88,-248.26 3544.55,-252.57 3545.13,-245.6"/>
</g>
<!-- [root] output.subnet_id -->
<g id="node7" class="node">
<title>[root] output.subnet_id</title>
<polygon fill="none" stroke="black" points="3046.48,-684 2915.48,-684 2915.48,-648 3052.48,-648 3052.48,-678 3046.48,-684"/>
<polyline fill="none" stroke="black" points="3046.48,-684 3046.48,-678 "/>
<polyline fill="none" stroke="black" points="3052.48,-678 3046.48,-678 "/>
<text text-anchor="middle" x="2983.98" y="-662.3" font-family="Times,serif" font-size="14.00">output.subnet_id</text>
</g>
<!-- [root] module.vnet.output.vnet_subnets (expand) -->
<g id="node20" class="node">
<title>[root] module.vnet.output.vnet_subnets (expand)</title>
<ellipse fill="none" stroke="black" cx="2983.98" cy="-594" rx="238.56" ry="18"/>
<text text-anchor="middle" x="2983.98" y="-590.3" font-family="Times,serif" font-size="14.00">[root] module.vnet.output.vnet_subnets (expand)</text>
</g>
<!-- [root] output.subnet_id&#45;&gt;[root] module.vnet.output.vnet_subnets (expand) -->
<g id="edge56" class="edge">
<title>[root] output.subnet_id&#45;&gt;[root] module.vnet.output.vnet_subnets (expand)</title>
<path fill="none" stroke="black" d="M2983.98,-647.7C2983.98,-639.98 2983.98,-630.71 2983.98,-622.11"/>
<polygon fill="black" stroke="black" points="2987.48,-622.1 2983.98,-612.1 2980.48,-622.1 2987.48,-622.1"/>
</g>
<!-- [root] var.subnet_names -->
<g id="node11" class="node">
<title>[root] var.subnet_names</title>
<polygon fill="none" stroke="black" points="1483.48,-324 1344.48,-324 1344.48,-288 1489.48,-288 1489.48,-318 1483.48,-324"/>
<polyline fill="none" stroke="black" points="1483.48,-324 1483.48,-318 "/>
<polyline fill="none" stroke="black" points="1489.48,-318 1483.48,-318 "/>
<text text-anchor="middle" x="1416.98" y="-302.3" font-family="Times,serif" font-size="14.00">var.subnet_names</text>
</g>
<!-- [root] var.subnet_prefixes -->
<g id="node12" class="node">
<title>[root] var.subnet_prefixes</title>
<polygon fill="none" stroke="black" points="1971.48,-324 1822.48,-324 1822.48,-288 1977.48,-288 1977.48,-318 1971.48,-324"/>
<polyline fill="none" stroke="black" points="1971.48,-324 1971.48,-318 "/>
<polyline fill="none" stroke="black" points="1977.48,-318 1971.48,-318 "/>
<text text-anchor="middle" x="1899.98" y="-302.3" font-family="Times,serif" font-size="14.00">var.subnet_prefixes</text>
</g>
<!-- [root] var.vnet_cidr -->
<g id="node13" class="node">
<title>[root] var.vnet_cidr</title>
<polygon fill="none" stroke="black" points="3048.48,-252 2945.48,-252 2945.48,-216 3054.48,-216 3054.48,-246 3048.48,-252"/>
<polyline fill="none" stroke="black" points="3048.48,-252 3048.48,-246 "/>
<polyline fill="none" stroke="black" points="3054.48,-246 3048.48,-246 "/>
<text text-anchor="middle" x="2999.98" y="-230.3" font-family="Times,serif" font-size="14.00">var.vnet_cidr</text>
</g>
<!-- [root] var.vnet_cidr_name -->
<g id="node14" class="node">
<title>[root] var.vnet_cidr_name</title>
<polygon fill="none" stroke="black" points="4826.48,-252 4677.48,-252 4677.48,-216 4832.48,-216 4832.48,-246 4826.48,-252"/>
<polyline fill="none" stroke="black" points="4826.48,-252 4826.48,-246 "/>
<polyline fill="none" stroke="black" points="4832.48,-246 4826.48,-246 "/>
<text text-anchor="middle" x="4754.98" y="-230.3" font-family="Times,serif" font-size="14.00">var.vnet_cidr_name</text>
</g>
<!-- [root] module.vnet (close) -->
<g id="node15" class="node">
<title>[root] module.vnet (close)</title>
<ellipse fill="none" stroke="black" cx="3224.98" cy="-666" rx="129.98" ry="18"/>
<text text-anchor="middle" x="3224.98" y="-662.3" font-family="Times,serif" font-size="14.00">[root] module.vnet (close)</text>
</g>
<!-- [root] module.vnet (close)&#45;&gt;[root] module.vnet.azurerm_subnet_network_security_group_association.vnet (expand) -->
<g id="edge4" class="edge">
<title>[root] module.vnet (close)&#45;&gt;[root] module.vnet.azurerm_subnet_network_security_group_association.vnet (expand)</title>
<path fill="none" stroke="black" d="M3128.1,-653.97C3106.37,-651.75 3083.4,-649.61 3061.98,-648 2719.66,-622.26 2630.75,-630.65 2284.14,-612.06"/>
<polygon fill="black" stroke="black" points="2284.25,-608.56 2274.07,-611.51 2283.87,-615.55 2284.25,-608.56"/>
</g>
<!-- [root] module.vnet (close)&#45;&gt;[root] module.vnet.azurerm_subnet_route_table_association.vnet (expand) -->
<g id="edge5" class="edge">
<title>[root] module.vnet (close)&#45;&gt;[root] module.vnet.azurerm_subnet_route_table_association.vnet (expand)</title>
<path fill="none" stroke="black" d="M3125,-654.44C3104.18,-652.28 3082.37,-650.04 3061.98,-648 2942.15,-636 2807.63,-623.07 2701.39,-612.99"/>
<polygon fill="black" stroke="black" points="2701.48,-609.48 2691.2,-612.02 2700.82,-616.45 2701.48,-609.48"/>
</g>
<!-- [root] module.vnet.output.vnet_address_space (expand) -->
<g id="node16" class="node">
<title>[root] module.vnet.output.vnet_address_space (expand)</title>
<ellipse fill="none" stroke="black" cx="4287.98" cy="-450" rx="269.15" ry="18"/>
<text text-anchor="middle" x="4287.98" y="-446.3" font-family="Times,serif" font-size="14.00">[root] module.vnet.output.vnet_address_space (expand)</text>
</g>
<!-- [root] module.vnet (close)&#45;&gt;[root] module.vnet.output.vnet_address_space (expand) -->
<g id="edge6" class="edge">
<title>[root] module.vnet (close)&#45;&gt;[root] module.vnet.output.vnet_address_space (expand)</title>
<path fill="none" stroke="black" d="M3334.22,-656.23C3424.91,-647.94 3557.01,-633.54 3670.98,-612 3875.83,-573.29 4113.18,-504.41 4224.36,-470.69"/>
<polygon fill="black" stroke="black" points="4225.53,-474 4234.08,-467.74 4223.49,-467.3 4225.53,-474"/>
</g>
<!-- [root] module.vnet.output.vnet_id (expand) -->
<g id="node17" class="node">
<title>[root] module.vnet.output.vnet_id (expand)</title>
<ellipse fill="none" stroke="black" cx="3264.98" cy="-450" rx="210.66" ry="18"/>
<text text-anchor="middle" x="3264.98" y="-446.3" font-family="Times,serif" font-size="14.00">[root] module.vnet.output.vnet_id (expand)</text>
</g>
<!-- [root] module.vnet (close)&#45;&gt;[root] module.vnet.output.vnet_id (expand) -->
<g id="edge7" class="edge">
<title>[root] module.vnet (close)&#45;&gt;[root] module.vnet.output.vnet_id (expand)</title>
<path fill="none" stroke="black" d="M3228.19,-647.85C3235.12,-610.75 3251.56,-522.81 3259.92,-478.1"/>
<polygon fill="black" stroke="black" points="3263.36,-478.71 3261.76,-468.23 3256.48,-477.42 3263.36,-478.71"/>
</g>
<!-- [root] module.vnet.output.vnet_location (expand) -->
<g id="node18" class="node">
<title>[root] module.vnet.output.vnet_location (expand)</title>
<ellipse fill="none" stroke="black" cx="3517.98" cy="-522" rx="238.56" ry="18"/>
<text text-anchor="middle" x="3517.98" y="-518.3" font-family="Times,serif" font-size="14.00">[root] module.vnet.output.vnet_location (expand)</text>
</g>
<!-- [root] module.vnet (close)&#45;&gt;[root] module.vnet.output.vnet_location (expand) -->
<g id="edge8" class="edge">
<title>[root] module.vnet (close)&#45;&gt;[root] module.vnet.output.vnet_location (expand)</title>
<path fill="none" stroke="black" d="M3258.88,-648.57C3312.07,-622.79 3415.13,-572.84 3473.98,-544.33"/>
<polygon fill="black" stroke="black" points="3475.56,-547.45 3483.03,-539.94 3472.5,-541.15 3475.56,-547.45"/>
</g>
<!-- [root] module.vnet.output.vnet_name (expand) -->
<g id="node19" class="node">
<title>[root] module.vnet.output.vnet_name (expand)</title>
<ellipse fill="none" stroke="black" cx="3772.98" cy="-450" rx="227.46" ry="18"/>
<text text-anchor="middle" x="3772.98" y="-446.3" font-family="Times,serif" font-size="14.00">[root] module.vnet.output.vnet_name (expand)</text>
</g>
<!-- [root] module.vnet (close)&#45;&gt;[root] module.vnet.output.vnet_name (expand) -->
<g id="edge9" class="edge">
<title>[root] module.vnet (close)&#45;&gt;[root] module.vnet.output.vnet_name (expand)</title>
<path fill="none" stroke="black" d="M3329.75,-655.33C3470.65,-639.99 3710.03,-604.96 3765.98,-540 3780.32,-523.35 3780.93,-497.86 3778.61,-478.41"/>
<polygon fill="black" stroke="black" points="3782.04,-477.69 3777.09,-468.33 3775.12,-478.74 3782.04,-477.69"/>
</g>
<!-- [root] module.vnet (close)&#45;&gt;[root] module.vnet.output.vnet_subnets (expand) -->
<g id="edge10" class="edge">
<title>[root] module.vnet (close)&#45;&gt;[root] module.vnet.output.vnet_subnets (expand)</title>
<path fill="none" stroke="black" d="M3171.8,-649.55C3136.17,-639.2 3088.98,-625.5 3050.82,-614.41"/>
<polygon fill="black" stroke="black" points="3051.39,-610.94 3040.81,-611.51 3049.44,-617.66 3051.39,-610.94"/>
</g>
<!-- [root] module.vnet.output.vnet_address_space (expand)&#45;&gt;[root] module.vnet.azurerm_virtual_network.vnet (expand) -->
<g id="edge32" class="edge">
<title>[root] module.vnet.output.vnet_address_space (expand)&#45;&gt;[root] module.vnet.azurerm_virtual_network.vnet (expand)</title>
<path fill="none" stroke="black" d="M4174.96,-433.64C4096.43,-422.96 3991.4,-408.69 3908.39,-397.4"/>
<polygon fill="black" stroke="black" points="3908.76,-393.92 3898.38,-396.04 3907.82,-400.86 3908.76,-393.92"/>
</g>
<!-- [root] module.vnet.output.vnet_id (expand)&#45;&gt;[root] module.vnet.azurerm_virtual_network.vnet (expand) -->
<g id="edge33" class="edge">
<title>[root] module.vnet.output.vnet_id (expand)&#45;&gt;[root] module.vnet.azurerm_virtual_network.vnet (expand)</title>
<path fill="none" stroke="black" d="M3370.86,-434.41C3448.82,-423.67 3555.39,-408.98 3639.24,-397.43"/>
<polygon fill="black" stroke="black" points="3639.92,-400.87 3649.35,-396.04 3638.96,-393.93 3639.92,-400.87"/>
</g>
<!-- [root] module.vnet.output.vnet_location (expand)&#45;&gt;[root] module.vnet.azurerm_virtual_network.vnet (expand) -->
<g id="edge34" class="edge">
<title>[root] module.vnet.output.vnet_location (expand)&#45;&gt;[root] module.vnet.azurerm_virtual_network.vnet (expand)</title>
<path fill="none" stroke="black" d="M3516.57,-503.73C3515.94,-483.69 3518.2,-450.98 3536.98,-432 3551.44,-417.39 3589.36,-406.2 3630.67,-397.96"/>
<polygon fill="black" stroke="black" points="3631.51,-401.36 3640.66,-396.03 3630.18,-394.49 3631.51,-401.36"/>
</g>
<!-- [root] module.vnet.output.vnet_name (expand)&#45;&gt;[root] module.vnet.azurerm_virtual_network.vnet (expand) -->
<g id="edge35" class="edge">
<title>[root] module.vnet.output.vnet_name (expand)&#45;&gt;[root] module.vnet.azurerm_virtual_network.vnet (expand)</title>
<path fill="none" stroke="black" d="M3772.98,-431.7C3772.98,-423.98 3772.98,-414.71 3772.98,-406.11"/>
<polygon fill="black" stroke="black" points="3776.48,-406.1 3772.98,-396.1 3769.48,-406.1 3776.48,-406.1"/>
</g>
<!-- [root] module.vnet.output.vnet_subnets (expand)&#45;&gt;[root] module.vnet.azurerm_subnet.subnet (expand) -->
<g id="edge36" class="edge">
<title>[root] module.vnet.output.vnet_subnets (expand)&#45;&gt;[root] module.vnet.azurerm_subnet.subnet (expand)</title>
<path fill="none" stroke="black" d="M2969.78,-575.88C2951.03,-554.67 2915.82,-519.46 2876.98,-504 2816.01,-479.72 2421.39,-463.1 2200.39,-455.58"/>
<polygon fill="black" stroke="black" points="2200.44,-452.08 2190.32,-455.24 2200.2,-459.07 2200.44,-452.08"/>
</g>
<!-- [root] module.vnet (expand) -->
<g id="node21" class="node">
<title>[root] module.vnet (expand)</title>
<ellipse fill="none" stroke="black" cx="2713.98" cy="-162" rx="140.28" ry="18"/>
<text text-anchor="middle" x="2713.98" y="-158.3" font-family="Times,serif" font-size="14.00">[root] module.vnet (expand)</text>
</g>
<!-- [root] module.vnet (expand)&#45;&gt;[root] azurerm_resource_group.rg_lab (expand) -->
<g id="edge11" class="edge">
<title>[root] module.vnet (expand)&#45;&gt;[root] azurerm_resource_group.rg_lab (expand)</title>
<path fill="none" stroke="black" d="M2713.98,-143.7C2713.98,-135.98 2713.98,-126.71 2713.98,-118.11"/>
<polygon fill="black" stroke="black" points="2717.48,-118.1 2713.98,-108.1 2710.48,-118.1 2717.48,-118.1"/>
</g>
<!-- [root] module.vnet.var.subnet_delegation (expand)&#45;&gt;[root] module.vnet (expand) -->
<g id="edge44" class="edge">
<title>[root] module.vnet.var.subnet_delegation (expand)&#45;&gt;[root] module.vnet (expand)</title>
<path fill="none" stroke="black" d="M2504.99,-216.59C2546.81,-205.87 2601.41,-191.87 2644.31,-180.86"/>
<polygon fill="black" stroke="black" points="2645.3,-184.22 2654.12,-178.35 2643.56,-177.44 2645.3,-184.22"/>
</g>
<!-- [root] module.vnet.var.subnet_enforce_private_link_endpoint_network_policies (expand)&#45;&gt;[root] module.vnet (expand) -->
<g id="edge45" class="edge">
<title>[root] module.vnet.var.subnet_enforce_private_link_endpoint_network_policies (expand)&#45;&gt;[root] module.vnet (expand)</title>
<path fill="none" stroke="black" d="M1124.5,-221.29C1170.52,-219.5 1217.53,-217.68 1261.98,-216 1741.44,-197.84 2310,-177.41 2570.57,-168.1"/>
<polygon fill="black" stroke="black" points="2570.98,-171.59 2580.85,-167.74 2570.73,-164.6 2570.98,-171.59"/>
</g>
<!-- [root] module.vnet.var.subnet_enforce_private_link_service_network_policies (expand)&#45;&gt;[root] module.vnet (expand) -->
<g id="edge46" class="edge">
<title>[root] module.vnet.var.subnet_enforce_private_link_service_network_policies (expand)&#45;&gt;[root] module.vnet (expand)</title>
<path fill="none" stroke="black" d="M741.17,-360.29C935.9,-319.21 1422.67,-216.54 1426.98,-216 1643.34,-188.97 2276.83,-172.37 2566.44,-165.99"/>
<polygon fill="black" stroke="black" points="2566.68,-169.49 2576.6,-165.77 2566.52,-162.49 2566.68,-169.49"/>
</g>
<!-- [root] module.vnet.var.subnet_names (expand)&#45;&gt;[root] var.subnet_names -->
<g id="edge48" class="edge">
<title>[root] module.vnet.var.subnet_names (expand)&#45;&gt;[root] var.subnet_names</title>
<path fill="none" stroke="black" d="M1340.43,-360.05C1353.49,-351.01 1369.74,-339.74 1383.9,-329.93"/>
<polygon fill="black" stroke="black" points="1386.18,-332.6 1392.41,-324.03 1382.2,-326.85 1386.18,-332.6"/>
</g>
<!-- [root] module.vnet.var.subnet_names (expand)&#45;&gt;[root] module.vnet (expand) -->
<g id="edge47" class="edge">
<title>[root] module.vnet.var.subnet_names (expand)&#45;&gt;[root] module.vnet (expand)</title>
<path fill="none" stroke="black" d="M1314.3,-359.8C1313.36,-339.51 1315.28,-306.25 1334.98,-288 1423.98,-205.57 2229.92,-175.42 2566.91,-166.35"/>
<polygon fill="black" stroke="black" points="2567.33,-169.84 2577.24,-166.07 2567.15,-162.84 2567.33,-169.84"/>
</g>
<!-- [root] module.vnet.var.subnet_prefixes (expand)&#45;&gt;[root] var.subnet_prefixes -->
<g id="edge50" class="edge">
<title>[root] module.vnet.var.subnet_prefixes (expand)&#45;&gt;[root] var.subnet_prefixes</title>
<path fill="none" stroke="black" d="M1819.64,-360.05C1833.47,-350.92 1850.72,-339.53 1865.69,-329.65"/>
<polygon fill="black" stroke="black" points="1867.78,-332.46 1874.19,-324.03 1863.92,-326.62 1867.78,-332.46"/>
</g>
<!-- [root] module.vnet.var.subnet_prefixes (expand)&#45;&gt;[root] module.vnet (expand) -->
<g id="edge49" class="edge">
<title>[root] module.vnet.var.subnet_prefixes (expand)&#45;&gt;[root] module.vnet (expand)</title>
<path fill="none" stroke="black" d="M1792.49,-359.65C1791.79,-339.54 1793.99,-306.77 1812.98,-288 1916.12,-186.07 2334.95,-166.06 2563.46,-162.89"/>
<polygon fill="black" stroke="black" points="2563.57,-166.38 2573.52,-162.75 2563.48,-159.38 2563.57,-166.38"/>
</g>
<!-- [root] module.vnet.var.subnet_service_endpoints (expand)&#45;&gt;[root] module.vnet (expand) -->
<g id="edge51" class="edge">
<title>[root] module.vnet.var.subnet_service_endpoints (expand)&#45;&gt;[root] module.vnet (expand)</title>
<path fill="none" stroke="black" d="M2291.55,-360.06C2237.26,-330.43 2140.43,-267.47 2186.98,-216 2212.35,-187.96 2422.64,-174.07 2569.78,-167.73"/>
<polygon fill="black" stroke="black" points="2569.98,-171.22 2579.82,-167.3 2569.68,-164.23 2569.98,-171.22"/>
</g>
<!-- [root] module.vnet.local.azurerm_subnets (expand)&#45;&gt;[root] module.vnet.azurerm_subnet.subnet (expand) -->
<g id="edge31" class="edge">
<title>[root] module.vnet.local.azurerm_subnets (expand)&#45;&gt;[root] module.vnet.azurerm_subnet.subnet (expand)</title>
<path fill="none" stroke="black" d="M2050.98,-503.7C2050.98,-495.98 2050.98,-486.71 2050.98,-478.11"/>
<polygon fill="black" stroke="black" points="2054.48,-478.1 2050.98,-468.1 2047.48,-478.1 2054.48,-478.1"/>
</g>
<!-- [root] module.vnet.var.nsg_ids (expand)&#45;&gt;[root] module.vnet (expand) -->
<g id="edge41" class="edge">
<title>[root] module.vnet.var.nsg_ids (expand)&#45;&gt;[root] module.vnet (expand)</title>
<path fill="none" stroke="black" d="M328.89,-220.89C353.52,-219 379.01,-217.25 402.98,-216 1217.44,-173.41 2195.14,-165.04 2563.66,-163.4"/>
<polygon fill="black" stroke="black" points="2563.87,-166.9 2573.85,-163.35 2563.84,-159.9 2563.87,-166.9"/>
</g>
<!-- [root] module.vnet.var.route_tables_ids (expand)&#45;&gt;[root] module.vnet (expand) -->
<g id="edge43" class="edge">
<title>[root] module.vnet.var.route_tables_ids (expand)&#45;&gt;[root] module.vnet (expand)</title>
<path fill="none" stroke="black" d="M2636.15,-503.72C2646.43,-461.05 2673.66,-347.25 2694.98,-252 2699.61,-231.32 2704.61,-207.87 2708.31,-190.24"/>
<polygon fill="black" stroke="black" points="2711.82,-190.59 2710.44,-180.08 2704.96,-189.15 2711.82,-190.59"/>
</g>
<!-- [root] module.vnet.var.address_space (expand)&#45;&gt;[root] var.vnet_cidr -->
<g id="edge38" class="edge">
<title>[root] module.vnet.var.address_space (expand)&#45;&gt;[root] var.vnet_cidr</title>
<path fill="none" stroke="black" d="M3232.23,-288.94C3185.41,-278.63 3123.57,-264.83 3068.98,-252 3067.52,-251.66 3066.04,-251.31 3064.55,-250.95"/>
<polygon fill="black" stroke="black" points="3065.11,-247.49 3054.57,-248.56 3063.48,-254.3 3065.11,-247.49"/>
</g>
<!-- [root] module.vnet.var.address_space (expand)&#45;&gt;[root] module.vnet (expand) -->
<g id="edge37" class="edge">
<title>[root] module.vnet.var.address_space (expand)&#45;&gt;[root] module.vnet (expand)</title>
<path fill="none" stroke="black" d="M3160.24,-292.13C3091.72,-284.03 3009.36,-271.35 2936.98,-252 2872.45,-234.75 2801.33,-204.22 2757.16,-183.8"/>
<polygon fill="black" stroke="black" points="2758.42,-180.53 2747.88,-179.48 2755.47,-186.88 2758.42,-180.53"/>
</g>
<!-- [root] module.vnet.var.ddos_protection_plan (expand)&#45;&gt;[root] module.vnet (expand) -->
<g id="edge39" class="edge">
<title>[root] module.vnet.var.ddos_protection_plan (expand)&#45;&gt;[root] module.vnet (expand)</title>
<path fill="none" stroke="black" d="M3730.59,-221.22C3702.27,-219.44 3673.34,-217.65 3645.98,-216 3363.17,-198.96 3031.99,-180.47 2850.39,-170.47"/>
<polygon fill="black" stroke="black" points="2850.43,-166.96 2840.25,-169.91 2850.04,-173.95 2850.43,-166.96"/>
</g>
<!-- [root] module.vnet.var.dns_servers (expand)&#45;&gt;[root] module.vnet (expand) -->
<g id="edge40" class="edge">
<title>[root] module.vnet.var.dns_servers (expand)&#45;&gt;[root] module.vnet (expand)</title>
<path fill="none" stroke="black" d="M4256.53,-220.9C4231.33,-219.09 4205.42,-217.37 4180.98,-216 3698.16,-188.97 3125.14,-172.89 2860.88,-166.38"/>
<polygon fill="black" stroke="black" points="2860.92,-162.88 2850.84,-166.13 2860.75,-169.88 2860.92,-162.88"/>
</g>
<!-- [root] module.vnet.var.tags (expand)&#45;&gt;[root] module.vnet (expand) -->
<g id="edge52" class="edge">
<title>[root] module.vnet.var.tags (expand)&#45;&gt;[root] module.vnet (expand)</title>
<path fill="none" stroke="black" d="M2859.96,-287.87C2830.47,-262.64 2775.24,-215.4 2741.82,-186.81"/>
<polygon fill="black" stroke="black" points="2743.69,-183.81 2733.82,-179.97 2739.14,-189.13 2743.69,-183.81"/>
</g>
<!-- [root] module.vnet.var.vnet_location (expand)&#45;&gt;[root] module.vnet (expand) -->
<g id="edge53" class="edge">
<title>[root] module.vnet.var.vnet_location (expand)&#45;&gt;[root] module.vnet (expand)</title>
<path fill="none" stroke="black" d="M3616.14,-293.25C3419.68,-278.44 3107.83,-254.6 3101.98,-252 3080.73,-242.54 3084.89,-226.21 3063.98,-216 3024.78,-196.85 2921.41,-182.64 2837.1,-173.78"/>
<polygon fill="black" stroke="black" points="2837.23,-170.28 2826.92,-172.73 2836.5,-177.24 2837.23,-170.28"/>
</g>
<!-- [root] module.vnet.var.vnet_name (expand)&#45;&gt;[root] var.vnet_cidr_name -->
<g id="edge55" class="edge">
<title>[root] module.vnet.var.vnet_name (expand)&#45;&gt;[root] var.vnet_cidr_name</title>
<path fill="none" stroke="black" d="M4695.86,-288.05C4705.66,-279.26 4717.79,-268.38 4728.5,-258.76"/>
<polygon fill="black" stroke="black" points="4730.9,-261.32 4736,-252.03 4726.22,-256.11 4730.9,-261.32"/>
</g>
<!-- [root] module.vnet.var.vnet_name (expand)&#45;&gt;[root] module.vnet (expand) -->
<g id="edge54" class="edge">
<title>[root] module.vnet.var.vnet_name (expand)&#45;&gt;[root] module.vnet (expand)</title>
<path fill="none" stroke="black" d="M4673.37,-287.67C4667.95,-266.59 4655.51,-231.87 4629.98,-216 4555.48,-169.68 3303.34,-163.71 2864.48,-163.04"/>
<polygon fill="black" stroke="black" points="2864.27,-159.54 2854.27,-163.03 2864.26,-166.54 2864.27,-159.54"/>
</g>
<!-- [root] module.vnet.var.resource_group_name (expand)&#45;&gt;[root] module.vnet (expand) -->
<g id="edge42" class="edge">
<title>[root] module.vnet.var.resource_group_name (expand)&#45;&gt;[root] module.vnet (expand)</title>
<path fill="none" stroke="black" d="M3238.03,-218.58C3117.15,-205.76 2942.4,-187.23 2828.5,-175.15"/>
<polygon fill="black" stroke="black" points="2828.67,-171.64 2818.35,-174.07 2827.93,-178.6 2828.67,-171.64"/>
</g>
<!-- [root] provider[&quot;registry.terraform.io/hashicorp/azurerm&quot;] (close) -->
<g id="node38" class="node">
<title>[root] provider[&quot;registry.terraform.io/hashicorp/azurerm&quot;] (close)</title>
<ellipse fill="none" stroke="black" cx="2509.98" cy="-666" rx="313.04" ry="18"/>
<text text-anchor="middle" x="2509.98" y="-662.3" font-family="Times,serif" font-size="14.00">[root] provider[&quot;registry.terraform.io/hashicorp/azurerm&quot;] (close)</text>
</g>
<!-- [root] provider[&quot;registry.terraform.io/hashicorp/azurerm&quot;] (close)&#45;&gt;[root] module.vnet.azurerm_subnet_network_security_group_association.vnet (expand) -->
<g id="edge57" class="edge">
<title>[root] provider[&quot;registry.terraform.io/hashicorp/azurerm&quot;] (close)&#45;&gt;[root] module.vnet.azurerm_subnet_network_security_group_association.vnet (expand)</title>
<path fill="none" stroke="black" d="M2397.06,-649.16C2321.38,-638.54 2221.46,-624.53 2142.24,-613.41"/>
<polygon fill="black" stroke="black" points="2142.58,-609.93 2132.19,-612 2141.61,-616.86 2142.58,-609.93"/>
</g>
<!-- [root] provider[&quot;registry.terraform.io/hashicorp/azurerm&quot;] (close)&#45;&gt;[root] module.vnet.azurerm_subnet_route_table_association.vnet (expand) -->
<g id="edge58" class="edge">
<title>[root] provider[&quot;registry.terraform.io/hashicorp/azurerm&quot;] (close)&#45;&gt;[root] module.vnet.azurerm_subnet_route_table_association.vnet (expand)</title>
<path fill="none" stroke="black" d="M2509.98,-647.7C2509.98,-639.98 2509.98,-630.71 2509.98,-622.11"/>
<polygon fill="black" stroke="black" points="2513.48,-622.1 2509.98,-612.1 2506.48,-622.1 2513.48,-622.1"/>
</g>
<!-- [root] root -->
<g id="node39" class="node">
<title>[root] root</title>
<ellipse fill="none" stroke="black" cx="2983.98" cy="-738" rx="58.49" ry="18"/>
<text text-anchor="middle" x="2983.98" y="-734.3" font-family="Times,serif" font-size="14.00">[root] root</text>
</g>
<!-- [root] root&#45;&gt;[root] output.subnet_id -->
<g id="edge60" class="edge">
<title>[root] root&#45;&gt;[root] output.subnet_id</title>
<path fill="none" stroke="black" d="M2983.98,-719.7C2983.98,-711.98 2983.98,-702.71 2983.98,-694.11"/>
<polygon fill="black" stroke="black" points="2987.48,-694.1 2983.98,-684.1 2980.48,-694.1 2987.48,-694.1"/>
</g>
<!-- [root] root&#45;&gt;[root] module.vnet (close) -->
<g id="edge59" class="edge">
<title>[root] root&#45;&gt;[root] module.vnet (close)</title>
<path fill="none" stroke="black" d="M3024.87,-725.13C3062.37,-714.23 3118.49,-697.93 3161.77,-685.36"/>
<polygon fill="black" stroke="black" points="3163,-688.65 3171.63,-682.5 3161.05,-681.92 3163,-688.65"/>
</g>
<!-- [root] root&#45;&gt;[root] provider[&quot;registry.terraform.io/hashicorp/azurerm&quot;] (close) -->
<g id="edge61" class="edge">
<title>[root] root&#45;&gt;[root] provider[&quot;registry.terraform.io/hashicorp/azurerm&quot;] (close)</title>
<path fill="none" stroke="black" d="M2932.35,-729.38C2859.75,-718.65 2725.42,-698.82 2627.7,-684.38"/>
<polygon fill="black" stroke="black" points="2628.17,-680.92 2617.77,-682.92 2627.15,-687.84 2628.17,-680.92"/>
</g>
</g>
</svg>
