<?xml version="1.0" standalone="no"?>
<!DOCTYPE svg PUBLIC "-//W3C//DTD SVG 20010904//EN"
 "http://www.w3.org/TR/2001/REC-SVG-20010904/DTD/svg10.dtd">
<svg version="1.0" xmlns="http://www.w3.org/2000/svg"
 width="1000.000000pt" height="1000.000000pt" viewBox="0 0 1000.000000 1000.000000"
 preserveAspectRatio="xMidYMid meet">

<g transform="translate(0.000000,1000.000000) scale(0.100000,-0.100000)"
fill="#000000" stroke="none">
<path d="M4705 7514 c-334 -39 -603 -141 -865 -327 -113 -81 -319 -289 -403
-407 -85 -120 -195 -342 -240 -485 -95 -299 -105 -669 -27 -975 86 -338 295
-672 561 -895 281 -236 627 -383 967 -411 l82 -7 0 220 0 221 -57 7 c-470 58
-911 435 -1057 904 -45 143 -59 263 -53 455 6 220 37 351 126 531 188 380 543
650 949 722 l92 17 0 218 0 218 -22 -1 c-13 -1 -36 -4 -53 -5z"/>
<path d="M4970 7306 l0 -216 31 0 c128 0 374 -62 504 -128 136 -68 301 -195
417 -321 l60 -66 -133 -128 c-73 -70 -136 -126 -139 -125 -4 2 -35 36 -70 77
-123 143 -297 256 -467 303 -65 18 -105 21 -238 21 -185 0 -264 -16 -403 -83
-105 -50 -158 -87 -248 -172 -168 -160 -261 -352 -286 -594 -42 -400 125 -731
474 -943 144 -87 276 -124 448 -123 82 0 137 6 191 21 263 69 498 294 554 532
26 110 60 99 -305 99 l-320 0 2 178 3 177 528 3 527 2 0 -82 c0 -208 -41 -450
-100 -593 -93 -222 -321 -464 -545 -577 -117 -60 -309 -112 -435 -120 l-45 -3
-3 -219 -2 -219 80 7 c44 3 124 15 178 26 646 132 1176 631 1342 1264 48 186
55 245 54 471 0 187 -3 224 -27 336 -125 595 -523 1069 -1087 1292 -135 54
-298 91 -482 112 l-58 6 0 -215z"/>
<path d="M4556 2957 c-32 -166 -61 -315 -63 -330 -6 -28 -6 -28 43 -25 l48 3
32 178 c17 97 33 179 35 181 2 2 42 -83 89 -190 47 -107 87 -194 90 -194 3 0
46 89 95 197 55 122 91 190 94 178 2 -11 15 -94 30 -185 l26 -165 49 -3 c49
-3 49 -3 43 25 -3 15 -29 164 -58 330 -29 167 -56 300 -60 295 -4 -4 -53 -109
-110 -235 -57 -125 -106 -224 -110 -220 -4 5 -51 107 -104 228 -53 121 -99
223 -103 227 -4 4 -33 -129 -66 -295z"/>
<path d="M6050 2933 l0 -333 50 0 50 0 0 216 0 216 142 -148 c79 -82 180 -187
225 -234 l83 -85 0 328 0 327 -45 0 -45 0 0 -216 0 -216 -137 143 c-76 79
-179 187 -230 239 l-93 95 0 -332z"/>
<path d="M5454 2925 l-152 -325 52 0 51 1 34 75 34 75 135 -3 136 -3 30 -72
30 -73 52 0 52 0 -146 325 c-81 179 -149 325 -152 325 -3 0 -73 -146 -156
-325z m190 47 c16 -37 35 -82 43 -99 l13 -33 -94 0 -95 0 46 100 c26 55 49
100 52 100 3 0 19 -31 35 -68z"/>
<path d="M1340 3213 c-64 -23 -161 -122 -183 -187 -21 -63 -22 -168 -1 -229
19 -57 90 -138 151 -174 55 -32 167 -43 239 -23 107 30 186 132 199 258 l7 62
-131 0 -131 0 0 -40 0 -40 75 0 c69 0 75 -2 75 -20 0 -80 -124 -164 -213 -144
-196 42 -262 272 -118 407 89 84 215 84 305 2 l39 -35 34 26 35 26 -38 39
c-63 65 -124 89 -218 88 -46 0 -100 -7 -126 -16z"/>
<path d="M2527 3216 c-82 -30 -141 -84 -188 -176 -32 -62 -33 -193 -2 -262 27
-60 94 -127 158 -159 43 -20 64 -24 145 -24 83 0 101 4 145 27 55 28 123 96
151 149 26 51 31 183 9 250 -24 72 -119 168 -189 192 -60 20 -176 22 -229 3z
m177 -80 c127 -38 192 -165 155 -301 -7 -26 -29 -58 -63 -91 -43 -44 -60 -54
-109 -64 -149 -30 -277 75 -277 228 0 119 65 206 175 233 47 11 68 10 119 -5z"/>
<path d="M3889 3216 c-56 -20 -105 -54 -144 -98 -109 -128 -97 -332 26 -443
73 -66 113 -80 224 -80 85 0 106 3 143 23 63 33 114 84 148 144 26 48 29 62
29 148 0 80 -4 102 -23 138 -36 67 -88 119 -154 152 -53 26 -72 30 -137 30
-42 -1 -92 -7 -112 -14z m178 -81 c72 -21 136 -92 154 -168 51 -232 -216 -387
-385 -224 -113 108 -88 303 49 374 67 36 109 40 182 18z"/>
<path d="M7773 3214 c-57 -21 -133 -91 -168 -155 -38 -70 -46 -180 -20 -260
25 -75 119 -169 194 -194 64 -21 185 -17 244 8 37 16 37 17 37 73 l0 56 -27
-18 c-80 -52 -131 -62 -205 -40 -37 11 -65 28 -95 58 -99 101 -97 245 6 341
82 76 187 84 284 21 l37 -24 0 55 c0 51 -2 55 -32 72 -46 24 -198 28 -255 7z"/>
<path d="M8335 3213 c-47 -24 -63 -42 -81 -89 -35 -92 10 -164 142 -224 44
-21 90 -50 102 -65 50 -63 6 -156 -74 -159 -54 -1 -90 24 -105 74 -14 45 -11
44 -61 29 -45 -12 -48 -30 -18 -89 33 -64 81 -94 160 -98 129 -8 210 67 210
193 0 95 -37 139 -160 191 -78 33 -110 59 -110 91 0 38 17 60 55 73 42 14 71
6 107 -27 l27 -25 35 21 36 22 -23 31 c-12 16 -39 39 -59 49 -46 24 -140 25
-183 2z"/>
<path d="M1930 2910 l0 -310 140 0 140 0 0 45 0 45 -90 0 -90 0 0 265 0 265
-50 0 -50 0 0 -310z"/>
<path d="M3150 2911 l0 -311 113 0 c122 0 171 15 214 61 50 55 57 138 18 206
-14 23 -29 43 -34 43 -4 0 -16 6 -26 14 -18 13 -18 14 3 41 31 39 31 129 0
175 -44 64 -68 75 -184 78 l-104 4 0 -311z m202 202 c25 -23 31 -66 14 -106
-11 -28 -23 -38 -54 -48 -66 -19 -72 -12 -72 84 0 46 3 87 8 91 11 12 84 -3
104 -21z m-7 -243 c82 -19 110 -96 56 -151 -27 -26 -36 -29 -95 -29 l-66 0 0
88 c0 49 3 92 7 95 9 10 50 8 98 -3z"/>
<path d="M6760 3180 l0 -39 68 -3 67 -3 3 -267 2 -268 45 0 45 0 2 268 3 267
68 3 67 3 0 39 0 40 -185 0 -185 0 0 -40z"/>
<path d="M7290 2910 l0 -310 45 0 45 0 0 310 0 310 -45 0 -45 0 0 -310z"/>
</g>
</svg>
